# xmcd CD database file
#
# Track frame offsets:
#	150
#	72999
#	106410
#	152498
#	231007
#
# Disc length: 4079 seconds
#
# Revision: 0
# Processed by: cddbd v1.5.2PL0 Copyright (c) Steve Scherf et al.
# Submitted via: CDex 1.70beta3
#
DISCID=360fed05
DTITLE=Sakata Akira and Chikamorachi - Flying Chikamorachi
DYEAR=2011
DGENRE=Jazz
TTITLE0=Flying Chikamorachi
TTITLE1=After 40 Years
TTITLE2=Five Elephants in a Beetle
TTITLE3=Kaguya-Hime Standing on Her Head
TTITLE4=Arekore Shitashi
EXTD=YEAR: 2011
EXTT0=
EXTT1=
EXTT2=
EXTT3=
EXTT4=
PLAYORDER=
